<svg width="42" height="42" viewBox="0 0 42 42" fill="none" xmlns="http://www.w3.org/2000/svg">
<path d="M0 21C0 9.40202 9.40202 0 21 0C32.598 0 42 9.40202 42 21C42 32.598 32.598 42 21 42H0V21Z" fill="#E0EFFF"/>
<path d="M13.5458 20.1667H15.1667C16.0871 20.1667 16.8333 20.9129 16.8333 21.8333V22.6667C16.8333 23.5871 17.5795 24.3333 18.5 24.3333C19.4205 24.3333 20.1667 25.0795 20.1667 26V28.4542M17.6667 14.2796V15.5833C17.6667 16.7339 18.5994 17.6667 19.75 17.6667H20.1667C21.0871 17.6667 21.8333 18.4129 21.8333 19.3333C21.8333 20.2538 22.5795 21 23.5 21C24.4205 21 25.1667 20.2538 25.1667 19.3333C25.1667 18.4129 25.9129 17.6667 26.8333 17.6667L27.7204 17.6667M23.5 28.0732V26C23.5 25.0795 24.2462 24.3333 25.1667 24.3333H27.7204M28.5 21C28.5 25.1421 25.1421 28.5 21 28.5C16.8579 28.5 13.5 25.1421 13.5 21C13.5 16.8579 16.8579 13.5 21 13.5C25.1421 13.5 28.5 16.8579 28.5 21Z" stroke="#003399" stroke-width="1.6" stroke-linecap="round" stroke-linejoin="round"/>
</svg>
