<svg width="42" height="42" viewBox="0 0 42 42" fill="none" xmlns="http://www.w3.org/2000/svg">
<path d="M0 21C0 9.40202 9.40202 0 21 0C32.598 0 42 9.40202 42 21C42 32.598 32.598 42 21 42H0V21Z" fill="#E0EFFF"/>
<g clip-path="url(#clip0_644_69939)">
<path d="M21 23.5C23.7614 23.5 26 21.2614 26 18.5C26 15.7386 23.7614 13.5 21 13.5C18.2386 13.5 16 15.7386 16 18.5C16 21.2614 18.2386 23.5 21 23.5Z" stroke="#003399" stroke-width="1.6" stroke-linecap="round" stroke-linejoin="round"/>
<path d="M21.002 23.5028L23.8353 28.4103L25.167 25.7169L28.1654 25.9103L25.3321 21.0028" stroke="#003399" stroke-width="1.6" stroke-linecap="round" stroke-linejoin="round"/>
<path d="M16.668 21.0028L13.8346 25.9103L16.833 25.7169L18.1648 28.4103L20.9981 23.5028" stroke="#003399" stroke-width="1.6" stroke-linecap="round" stroke-linejoin="round"/>
</g>
<defs>
<clipPath id="clip0_644_69939">
<rect width="20" height="20" fill="white" transform="translate(11 11)"/>
</clipPath>
</defs>
</svg>
