<svg width="120" height="120" viewBox="0 0 120 120" fill="none" xmlns="http://www.w3.org/2000/svg">
<g clip-path="url(#clip0_1102_225)">
<circle cx="60" cy="60" r="60" fill="white"/>
<g clip-path="url(#clip1_1102_225)">
<path d="M73.2112 14.4829C73.8717 15.1575 74.4243 15.7197 75.0173 16.3193C75.3004 16.1069 75.5295 15.932 75.7856 15.7321C75.1252 15.0825 74.586 14.5579 73.993 13.9707C74.7073 13.7584 75.2869 13.5835 76.1226 13.3336C74.0469 12.3967 72.1868 11.5722 70.0977 10.6353C70.7581 12.684 71.3377 14.4704 71.9981 16.4692C72.4429 15.7321 72.7799 15.1825 73.2112 14.4829Z" fill="black"/>
<path d="M93.5623 27.2129L90.7722 26.3884C90.57 24.2772 88.8583 22.7531 86.7421 22.2035C84.7473 21.6788 82.429 22.0411 80.8789 23.4652L61.4159 17.7187C61.4024 17.6562 61.3889 17.5938 61.362 17.5313L58.1675 8.29947L58.1406 8.22451C58.0193 7.78728 57.7362 7.425 57.3588 7.21263C56.9814 7.00026 56.5366 6.9503 56.0784 7.06273C55.6336 7.17516 55.2831 7.425 55.0675 7.74981C54.6227 7.82476 54.1509 7.89971 53.6926 8.01214C52.7087 8.23701 51.7787 8.68673 50.943 9.36132C50.1613 10.0109 49.1773 10.2982 47.7486 10.3357H47.3981C46.576 10.3357 46.1581 10.7355 45.9694 10.9603C45.7942 11.1852 45.5246 11.6849 45.7538 12.4095C45.902 12.8717 46.0503 13.3464 46.212 13.8086L46.7242 15.3452C46.9668 16.0697 47.2094 16.7943 47.4386 17.5188C47.6812 18.3183 48.3551 18.793 49.2447 18.793H49.2852C51.6574 18.793 53.4366 18.2434 54.8922 17.0691C55.5123 16.5694 56.2536 15.7949 57.251 15.6824L57.3993 16.1322C57.5475 16.5819 57.6958 17.0316 57.8306 17.4689L57.9788 17.9311L26.6816 27.2254C26.1963 27.3753 25.8729 27.775 25.8594 28.2497C25.8594 28.712 26.1694 29.1367 26.6411 29.2991L44.5811 35.3329V41.0044H47.1151V30.3984C54.8518 27.825 65.6886 27.8625 73.1018 30.3984V41.5791H75.4875V36.0325L82.6042 33.3841L86.9174 31.7851C86.6073 32.5471 86.4052 33.2842 86.4052 33.8088C86.4052 35.4703 87.8608 36.8195 89.6535 36.8195C91.4462 36.8195 92.9018 35.4703 92.9018 33.8088C92.9018 33.2842 92.6997 32.5471 92.3762 31.7851C92.1336 31.1979 91.8236 30.5983 91.5405 30.0736L92.9827 29.5365L93.6432 29.2866C94.1014 29.1242 94.398 28.6995 94.3845 28.2373C94.371 27.775 94.034 27.3753 93.5623 27.2379V27.2129ZM53.1939 15.2577C52.3178 15.9698 51.253 16.3196 49.7704 16.382C49.5817 15.7949 49.393 15.2202 49.2043 14.6331L48.6921 13.0965C48.6517 12.9591 48.5977 12.8217 48.5573 12.6843C50.2287 12.5344 51.5765 12.0347 52.6548 11.1477C53.167 10.7355 53.7061 10.4606 54.2992 10.3357C54.7575 10.2358 55.2292 10.1483 55.7414 10.0609C55.8357 10.0484 55.9166 10.0359 56.011 10.0234L57.2375 13.7461C55.5662 13.896 54.2587 14.3707 53.1805 15.2452L53.1939 15.2577ZM86.0952 24.3147C86.9039 24.527 87.6452 24.9643 88.063 25.5889L83.7768 24.3271C84.5182 24.1023 85.3538 24.1148 86.0952 24.3147ZM81.5529 31.4103L81.445 31.4478L75.4875 33.6589V29.6364C75.4875 29.1867 75.191 28.7869 74.7462 28.612C66.5916 25.5639 54.0566 25.5014 45.5111 28.612C45.0664 28.7744 44.7698 29.1742 44.7698 29.6364V33.0593L30.6982 28.3247L49.7704 22.6657L60.0411 19.6175C60.0411 19.6175 60.068 19.6175 60.0815 19.6175L62.4268 20.3046L88.4539 27.9999C88.4539 28.2248 88.4539 28.4621 88.4539 28.7245L81.5259 31.4103H81.5529ZM89.6535 34.6084C89.1683 34.6084 88.7639 34.2461 88.7639 33.7963C88.7639 33.3466 89.0739 32.672 89.3974 31.9975L89.6535 31.4728C89.7479 31.6477 89.8287 31.8226 89.9096 31.9975C90.2331 32.6595 90.5431 33.3466 90.5431 33.7963C90.5431 34.2461 90.1387 34.6084 89.6535 34.6084Z" fill="#AD1C3B"/>
<path d="M43.7731 73.6217V55.895H38.7725V59.6302C38.2873 58.5809 37.4921 57.569 36.3868 56.5946C35.2816 55.6202 33.7046 55.133 31.6693 55.133C30.3754 55.133 29.3375 55.3579 28.5558 55.8076C27.774 56.2573 27.1809 56.832 26.7766 57.5315C26.3722 58.2311 26.1027 59.0181 25.9679 59.8926C25.8331 60.767 25.7657 61.629 25.7657 62.4785C25.7657 64.6272 25.9814 66.6884 26.4127 68.6872C26.844 70.686 27.4101 72.5973 28.111 74.4462C28.8119 76.295 29.6071 78.0689 30.4967 79.7929C31.3863 81.5168 32.2624 83.1908 33.125 84.8398C34.5807 87.6381 35.8881 90.2989 37.0338 92.8474C38.1929 95.3958 38.7725 97.9817 38.7725 100.63C38.7725 101.879 38.4895 102.941 37.9234 103.803C37.3573 104.678 36.2925 105.115 34.729 105.115C33.1654 105.115 32.1141 104.678 31.575 103.803C31.0358 102.929 30.7662 101.867 30.7662 100.63V88.2877H30.7528V85.0522H24V89.387H25.7657V99.8806C25.7657 101.13 25.9544 102.317 26.3318 103.428C26.7092 104.553 27.2618 105.527 27.9897 106.352C28.7175 107.176 29.6475 107.826 30.7797 108.3C31.9119 108.775 33.2328 109.012 34.729 109.012C37.8021 109.012 40.0665 108.101 41.5491 106.277C43.0318 104.453 43.7731 102.179 43.7731 99.4308C43.7731 96.6825 43.1261 93.8468 41.8322 91.0485C40.5382 88.2502 39.1095 86.4013 37.5595 83.5531C36.7507 82.004 35.942 80.4675 35.1333 78.9184C34.3246 77.3694 33.5968 75.8078 32.9498 74.2088C32.3028 72.6098 31.7771 71.0108 31.3728 69.3868C30.9684 67.7628 30.7662 66.1138 30.7662 64.4148C30.7662 63.1656 31.0493 62.1162 31.6154 61.2792C32.1815 60.4298 33.2463 60.005 34.8098 60.005C36.1038 60.005 37.0607 60.3048 37.6808 60.9045C38.3008 61.5041 38.6647 62.2786 38.7725 63.228V73.6342H43.7731V73.6217Z" fill="#1A213E"/>
<path d="M93.509 60.3673L96.0565 60.4048V56.0699L89.4789 56.1074L88.7645 60.2923L84.7614 83.0034L80.7717 60.2923L80.0709 56.1074H73.8438V60.4547L75.9599 60.4048L82.2679 89.437V104.653H80.7043V109H88.7511V104.653H87.2684V89.437L93.509 60.3673Z" fill="#1A213E"/>
<path d="M70.1516 62.0163C69.882 60.892 69.4507 59.9176 68.8576 59.0931C68.2646 58.2686 67.4963 57.6065 66.5528 57.1068C65.6093 56.6071 64.4367 56.3573 63.0484 56.3573H57.9939H49.125V60.6921H52.4677V104.378H49.125V108.713H52.4677H63.0349C64.3828 108.713 65.5284 108.463 66.4585 107.963C67.402 107.463 68.1837 106.789 68.8037 105.939C69.4238 105.09 69.8685 104.103 70.1381 102.979C70.4077 101.854 70.5425 100.693 70.5425 99.5058V65.4642C70.5425 64.2649 70.4077 63.1031 70.1381 61.9913L70.1516 62.0163ZM65.461 97.9568C65.461 99.0561 65.2454 100.068 64.8141 100.992C64.3828 101.917 63.601 102.404 62.4688 102.454H57.4682V61.7165H62.4688C63.601 61.7165 64.3828 62.1787 64.8141 63.1031C65.2454 64.0276 65.461 65.0394 65.461 66.1388V97.9818V97.9568Z" fill="#1A213E"/>
<path d="M96.9597 40.1172C96.8923 38.8805 89.8295 38.8305 88.5221 38.8305C78.6557 38.8305 69.652 40.4295 63.0745 47.1879C61.8614 48.4371 59.4757 48.4371 58.2626 47.1879C47.035 35.6574 24.4584 38.8555 24.3775 40.392C24.2427 42.9405 24.5392 46.938 25.7927 50.8981H29.715C29.2972 48.8369 29.1219 46.6382 29.1219 44.452C29.1219 41.5288 29.7554 41.6538 37.2361 41.6538C45.1075 41.6538 55.7421 43.6525 55.7421 50.8231V50.8981H65.5546V50.8231C65.5546 42.116 81.1762 40.9417 90.5169 41.8661C91.0156 41.9161 91.6626 42.116 91.8647 42.6032C92.1882 43.3902 92.4443 47.0005 91.6356 50.8981H95.504C96.7036 47.2503 97.1214 43.3777 96.9462 40.1047L96.9597 40.1172Z" fill="#1A213E"/>
</g>
</g>
<defs>
<clipPath id="clip0_1102_225">
<rect width="120" height="120" fill="white"/>
</clipPath>
<clipPath id="clip1_1102_225">
<rect width="73" height="102" fill="white" transform="translate(24 7)"/>
</clipPath>
</defs>
</svg>
