<svg width="16" height="16" viewBox="0 0 16 16" fill="none" xmlns="http://www.w3.org/2000/svg">
<path d="M8.00429 3.83818C5.73286 3.83818 3.90072 5.6417 3.90072 7.87763C3.90072 10.1136 5.73286 11.9171 8.00429 11.9171C10.2757 11.9171 12.1079 10.1136 12.1079 7.87763C12.1079 5.6417 10.2757 3.83818 8.00429 3.83818ZM8.00429 10.5038C6.53644 10.5038 5.33644 9.32607 5.33644 7.87763C5.33644 6.4292 6.53286 5.25146 8.00429 5.25146C9.47572 5.25146 10.6721 6.4292 10.6721 7.87763C10.6721 9.32607 9.47215 10.5038 8.00429 10.5038ZM13.2329 3.67295C13.2329 4.19677 12.8043 4.61513 12.2757 4.61513C11.7436 4.61513 11.3186 4.19326 11.3186 3.67295C11.3186 3.15264 11.7471 2.73076 12.2757 2.73076C12.8043 2.73076 13.2329 3.15264 13.2329 3.67295ZM15.9507 4.6292C15.89 3.36709 15.5971 2.24912 14.6579 1.32803C13.7221 0.406933 12.5864 0.118652 11.3043 0.0553711C9.98286 -0.018457 6.02215 -0.018457 4.70072 0.0553711C3.42215 0.115137 2.28644 0.403418 1.34715 1.32451C0.407868 2.2456 0.118583 3.36357 0.0542968 4.62568C-0.0207031 5.92646 -0.0207031 9.82529 0.0542968 11.1261C0.115011 12.3882 0.407868 13.5061 1.34715 14.4272C2.28644 15.3483 3.41858 15.6366 4.70072 15.6999C6.02215 15.7737 9.98286 15.7737 11.3043 15.6999C12.5864 15.6401 13.7221 15.3518 14.6579 14.4272C15.5936 13.5061 15.8864 12.3882 15.9507 11.1261C16.0257 9.82529 16.0257 5.92998 15.9507 4.6292ZM14.2436 12.5218C13.965 13.2108 13.4257 13.7417 12.7221 14.0194C11.6686 14.4308 9.16858 14.3358 8.00429 14.3358C6.84001 14.3358 4.33644 14.4272 3.28644 14.0194C2.58644 13.7452 2.04715 13.2143 1.76501 12.5218C1.34715 11.4847 1.44358 9.02373 1.44358 7.87763C1.44358 6.73154 1.35072 4.26709 1.76501 3.23349C2.04358 2.54443 2.58287 2.01357 3.28644 1.73584C4.34001 1.32451 6.84001 1.41943 8.00429 1.41943C9.16858 1.41943 11.6721 1.32803 12.7221 1.73584C13.4221 2.01006 13.9614 2.54092 14.2436 3.23349C14.6614 4.2706 14.565 6.73154 14.565 7.87763C14.565 9.02373 14.6614 11.4882 14.2436 12.5218Z" fill="white"/>
</svg>
