<svg width="43" height="60" viewBox="0 0 43 60" fill="none" xmlns="http://www.w3.org/2000/svg">
<g clip-path="url(#clip0_625_6596)">
<path d="M28.9864 4.40172C29.3754 4.79853 29.7009 5.12921 30.0502 5.48194C30.217 5.35701 30.3519 5.25414 30.5028 5.13656C30.1138 4.75444 29.7962 4.44581 29.4468 4.10043C29.8676 3.97551 30.209 3.87263 30.7013 3.72566C29.4786 3.17453 28.383 2.68953 27.1523 2.1384C27.5414 3.34354 27.8828 4.39437 28.2718 5.57012C28.5338 5.13656 28.7323 4.81323 28.9864 4.40172Z" fill="black"/>
<path d="M40.9755 11.8899L39.332 11.4049C39.2129 10.163 38.2046 9.26653 36.9581 8.9432C35.7831 8.63456 34.4175 8.84767 33.5045 9.68539L22.0399 6.30511C22.032 6.26836 22.0241 6.23162 22.0082 6.19488L20.1265 0.764383L20.1107 0.720293C20.0392 0.463098 19.8725 0.249993 19.6502 0.125069C19.4279 0.000145847 19.1659 -0.0292479 18.8959 0.036888C18.6339 0.103024 18.4275 0.249993 18.3005 0.441052C18.0385 0.485143 17.7606 0.529233 17.4906 0.595369C16.9111 0.727641 16.3632 0.992185 15.871 1.389C15.4105 1.77112 14.8309 1.94013 13.9894 1.96218H13.7829C13.2986 1.96218 13.0525 2.19733 12.9413 2.3296C12.8381 2.46187 12.6793 2.75581 12.8143 3.18202C12.9016 3.45391 12.989 3.73315 13.0843 4.00504L13.386 4.9089C13.5289 5.33511 13.6718 5.76132 13.8067 6.18753C13.9497 6.65783 14.3466 6.93707 14.8706 6.93707H14.8944C16.2918 6.93707 17.3398 6.61374 18.1973 5.92299C18.5625 5.62905 18.9991 5.17345 19.5867 5.10731L19.674 5.37185C19.7613 5.6364 19.8487 5.90094 19.9281 6.15814L20.0154 6.43003L1.58001 11.8973C1.29419 11.9855 1.10364 12.2206 1.0957 12.4998C1.0957 12.7717 1.27831 13.0216 1.55619 13.1171L12.1236 16.6664V20.0026H13.6162V13.7638C18.1734 12.25 24.5567 12.272 28.9234 13.7638V20.3406H30.3287V17.0779L34.5207 15.5201L37.0614 14.5794C36.8787 15.0277 36.7597 15.4613 36.7597 15.7699C36.7597 16.7472 37.6171 17.5409 38.6731 17.5409C39.729 17.5409 40.5865 16.7472 40.5865 15.7699C40.5865 15.4613 40.4674 15.0277 40.2768 14.5794C40.1339 14.2341 39.9513 13.8813 39.7846 13.5727L40.6341 13.2567L41.0231 13.1098C41.2931 13.0142 41.4677 12.7644 41.4598 12.4925C41.4519 12.2206 41.2534 11.9855 40.9755 11.9046V11.8899ZM17.1969 4.85746C16.6808 5.27633 16.0536 5.48208 15.1803 5.51882C15.0691 5.17345 14.958 4.83542 14.8468 4.49004L14.5451 3.58618C14.5213 3.50535 14.4895 3.42452 14.4657 3.34369C15.4502 3.2555 16.2442 2.96157 16.8793 2.43983C17.181 2.19733 17.4986 2.03566 17.8479 1.96218C18.1179 1.90339 18.3957 1.85195 18.6974 1.80051C18.753 1.79317 18.8007 1.78582 18.8562 1.77847L19.5787 3.9683C18.5942 4.05648 17.8241 4.33572 17.1889 4.85012L17.1969 4.85746ZM36.5771 10.1851C37.0534 10.31 37.4901 10.5672 37.7362 10.9346L35.2115 10.1924C35.6481 10.0602 36.1404 10.0675 36.5771 10.1851ZM33.9015 14.359L33.8379 14.381L30.3287 15.6817V13.3155C30.3287 13.051 30.154 12.8158 29.892 12.7129C25.0887 10.9199 17.705 10.8832 12.6714 12.7129C12.4094 12.8085 12.2347 13.0436 12.2347 13.3155V15.329L3.94596 12.5439L15.1803 9.21509L21.2301 7.42207C21.2301 7.42207 21.246 7.42207 21.2539 7.42207L22.6354 7.82623L37.9665 12.3529C37.9665 12.4851 37.9665 12.6248 37.9665 12.7791L33.8856 14.359H33.9015ZM38.6731 16.2402C38.3872 16.2402 38.1491 16.0271 38.1491 15.7625C38.1491 15.498 38.3317 15.1012 38.5222 14.7044L38.6731 14.3957C38.7286 14.4986 38.7763 14.6015 38.8239 14.7044C39.0145 15.0938 39.1971 15.498 39.1971 15.7625C39.1971 16.0271 38.9589 16.2402 38.6731 16.2402Z" fill="#AD1C3B"/>
<path d="M11.6472 39.1892V28.7618H8.70162V30.959C8.4158 30.3417 7.94738 29.7465 7.29634 29.1733C6.64531 28.6001 5.7164 28.3135 4.51754 28.3135C3.75535 28.3135 3.14402 28.4458 2.68353 28.7104C2.22304 28.9749 1.87371 29.3129 1.63552 29.7244C1.39734 30.136 1.23855 30.5989 1.15916 31.1133C1.07976 31.6277 1.04007 32.1347 1.04007 32.6344C1.04007 33.8984 1.1671 35.1108 1.42116 36.2866C1.67522 37.4623 2.00868 38.5867 2.42153 39.6742C2.83438 40.7618 3.30281 41.8053 3.82681 42.8194C4.35081 43.8334 4.86688 44.8181 5.375 45.7881C6.23246 47.4342 7.00258 48.9994 7.67744 50.4985C8.36023 51.9976 8.70162 53.5187 8.70162 55.0765C8.70162 55.8114 8.5349 56.436 8.20144 56.9431C7.86798 57.4574 7.24077 57.7146 6.31979 57.7146C5.39882 57.7146 4.77954 57.4574 4.46196 56.9431C4.14439 56.4287 3.9856 55.804 3.9856 55.0765V47.8163H3.97766V45.913H0V48.463H1.04007V54.6356C1.04007 55.3705 1.15122 56.0686 1.37352 56.7226C1.59583 57.384 1.92134 57.9571 2.35007 58.4421C2.7788 58.9271 3.32663 59.3092 3.99354 59.5885C4.66045 59.8677 5.43852 60.0074 6.31979 60.0074C8.12999 60.0074 9.46381 59.4709 10.3371 58.398C11.2105 57.3252 11.6472 55.9878 11.6472 54.3711C11.6472 52.7544 11.2661 51.0863 10.5039 49.4403C9.74169 47.7942 8.90011 46.7067 7.98708 45.0312C7.51071 44.12 7.03434 43.2162 6.55798 42.305C6.08161 41.3938 5.65288 40.4752 5.27179 39.5346C4.89069 38.594 4.58106 37.6534 4.34287 36.6981C4.10469 35.7428 3.9856 34.7728 3.9856 33.7734C3.9856 33.0386 4.15233 32.4213 4.48578 31.929C4.81924 31.4293 5.44646 31.1794 6.36743 31.1794C7.12962 31.1794 7.69332 31.3558 8.05853 31.7085C8.42374 32.0612 8.63811 32.5168 8.70162 33.0753V39.1966H11.6472V39.1892Z" fill="#1A213E"/>
<path d="M40.943 31.3925L42.4436 31.4146V28.8647L38.5691 28.8867L38.1483 31.3484L35.7903 44.7079L33.4402 31.3484L33.0274 28.8867H29.3594V31.444L30.6059 31.4146L34.3215 48.4923V57.4427H33.4005V60H38.1404V57.4427H37.2671V48.4923L40.943 31.3925Z" fill="#1A213E"/>
<path d="M27.1844 32.3625C27.0256 31.7012 26.7715 31.128 26.4222 30.643C26.0728 30.158 25.6203 29.7685 25.0645 29.4746C24.5088 29.1806 23.818 29.0337 23.0003 29.0337H20.023H14.7988V31.5836H16.7678V57.2811H14.7988V59.831H16.7678H22.9923C23.7863 59.831 24.4611 59.684 25.0089 59.3901C25.5647 59.0961 26.0252 58.6993 26.3904 58.1996C26.7556 57.6999 27.0176 57.1194 27.1764 56.4581C27.3352 55.7967 27.4146 55.1133 27.4146 54.4152V34.3907C27.4146 33.6852 27.3352 33.0018 27.1764 32.3478L27.1844 32.3625ZM24.4214 53.504C24.4214 54.1506 24.2944 54.7459 24.0403 55.2896C23.7863 55.8334 23.3258 56.12 22.6589 56.1494H19.7133V32.1862H22.6589C23.3258 32.1862 23.7863 32.458 24.0403 33.0018C24.2944 33.5456 24.4214 34.1408 24.4214 34.7875V53.5187V53.504Z" fill="#1A213E"/>
<path d="M42.9765 19.4807C42.9368 18.7532 38.7766 18.7238 38.0064 18.7238C32.1948 18.7238 26.8912 19.6644 23.0168 23.6399C22.3022 24.3748 20.8969 24.3748 20.1824 23.6399C13.5688 16.8573 0.270284 18.7385 0.222647 19.6424C0.143253 21.1415 0.317921 23.493 1.05629 25.8224H3.36666C3.12054 24.6099 3.01733 23.3166 3.01733 22.0306C3.01733 20.3111 3.39048 20.3846 7.79687 20.3846C12.4335 20.3846 18.6977 21.5603 18.6977 25.7783V25.8224H24.4776V25.7783C24.4776 20.6565 33.6794 19.9657 39.1815 20.5095C39.4752 20.5389 39.8563 20.6565 39.9754 20.943C40.166 21.406 40.3168 23.5297 39.8404 25.8224H42.1191C42.8257 23.6767 43.0718 21.3987 42.9686 19.4734L42.9765 19.4807Z" fill="#1A213E"/>
</g>
<defs>
<clipPath id="clip0_625_6596">
<rect width="43" height="60" fill="white"/>
</clipPath>
</defs>
</svg>
