<svg width="42" height="42" viewBox="0 0 42 42" fill="none" xmlns="http://www.w3.org/2000/svg">
<path d="M0 21C0 9.40202 9.40202 0 21 0C32.598 0 42 9.40202 42 21C42 32.598 32.598 42 21 42H0V21Z" fill="#E0EFFF"/>
<path d="M25.166 27.6667H29.3327V26C29.3327 24.6193 28.2134 23.5 26.8327 23.5C26.0363 23.5 25.327 23.8724 24.8691 24.4525M25.166 27.6667H16.8327M25.166 27.6667V26C25.166 25.4532 25.0607 24.9309 24.8691 24.4525M16.8327 27.6667H12.666V26C12.666 24.6193 13.7853 23.5 15.166 23.5C15.9624 23.5 16.6717 23.8724 17.1296 24.4525M16.8327 27.6667V26C16.8327 25.4532 16.938 24.9309 17.1296 24.4525M17.1296 24.4525C17.7439 22.9176 19.245 21.8334 20.9993 21.8334C22.7537 21.8334 24.2548 22.9176 24.8691 24.4525M23.4993 16.8334C23.4993 18.2141 22.3801 19.3334 20.9993 19.3334C19.6186 19.3334 18.4993 18.2141 18.4993 16.8334C18.4993 15.4527 19.6186 14.3334 20.9993 14.3334C22.3801 14.3334 23.4993 15.4527 23.4993 16.8334ZM28.4993 19.3334C28.4993 20.2538 27.7532 21 26.8327 21C25.9122 21 25.166 20.2538 25.166 19.3334C25.166 18.4129 25.9122 17.6667 26.8327 17.6667C27.7532 17.6667 28.4993 18.4129 28.4993 19.3334ZM16.8327 19.3334C16.8327 20.2538 16.0865 21 15.166 21C14.2455 21 13.4993 20.2538 13.4993 19.3334C13.4993 18.4129 14.2455 17.6667 15.166 17.6667C16.0865 17.6667 16.8327 18.4129 16.8327 19.3334Z" stroke="#003399" stroke-width="1.6" stroke-linecap="round" stroke-linejoin="round"/>
</svg>
