<svg width="42" height="42" viewBox="0 0 42 42" fill="none" xmlns="http://www.w3.org/2000/svg">
<path d="M0 21C0 9.40202 9.40202 0 21 0C32.598 0 42 9.40202 42 21C42 32.598 32.598 42 21 42H0V21Z" fill="#E0EFFF"/>
<path d="M17.6667 21H17.675M21 21H21.0083M24.3333 21H24.3417M28.5 21C28.5 24.6819 25.1421 27.6667 21 27.6667C19.7173 27.6667 18.5098 27.3805 17.4539 26.8759L13.5 27.6667L14.6625 24.5667C13.9263 23.5353 13.5 22.3119 13.5 21C13.5 17.3181 16.8579 14.3334 21 14.3334C25.1421 14.3334 28.5 17.3181 28.5 21Z" stroke="#003399" stroke-width="1.6" stroke-linecap="round" stroke-linejoin="round"/>
</svg>
